<svg width="38" height="38" viewBox="0 0 38 38" fill="none" xmlns="http://www.w3.org/2000/svg">
<circle cx="19" cy="19" r="19" fill="#050400"/>
<mask id="mask0_267_241" style="mask-type:luminance" maskUnits="userSpaceOnUse" x="9" y="11" width="20" height="16">
<path d="M28.2194 11.5H9.78027V26.5H28.2194V11.5Z" fill="white"/>
</mask>
<g mask="url(#mask0_267_241)">
<path d="M27.8553 19.2051C27.8553 19.0977 27.8174 19.0098 27.7416 18.9316L21.3348 12.291C21.1928 12.125 21.0884 12.0859 20.9842 12.0859C20.7757 12.0859 20.6146 12.252 20.6146 12.457C20.6146 12.5644 20.6431 12.6621 20.7189 12.7305L24.5004 16.6367L26.7655 18.8926L24.6899 18.834H10.616C10.417 18.834 10.2559 18.9902 10.2559 19.2051C10.2559 19.4199 10.417 19.5762 10.616 19.5762H24.6899L26.7655 19.5273L24.5004 21.7734L20.7189 25.6797C20.6525 25.748 20.6146 25.8555 20.6146 25.9629C20.6146 26.1582 20.7757 26.3242 20.9842 26.3242C21.0884 26.3242 21.1737 26.2852 21.2496 26.207L27.7416 19.4785C27.8174 19.4004 27.8553 19.3125 27.8553 19.2051Z" fill="white"/>
</g>
</svg>
