<svg width="26" height="26" viewBox="0 0 26 26" fill="none" xmlns="http://www.w3.org/2000/svg">
<circle cx="12.8832" cy="12.8834" r="12.8834" transform="rotate(-180 12.8832 12.8834)" fill="#050400"/>
<mask id="mask0_267_230" style="mask-type:luminance" maskUnits="userSpaceOnUse" x="7" y="8" width="12" height="10">
<path d="M7.52643 17.3777L18.5757 17.3777L18.5757 8.38926L7.52643 8.38926L7.52643 17.3777Z" fill="white"/>
</mask>
<g mask="url(#mask0_267_230)">
<path d="M7.74444 12.7605C7.74444 12.8249 7.76718 12.8775 7.8126 12.9244L11.6517 16.9036C11.7368 17.0031 11.7993 17.0265 11.8618 17.0265C11.9867 17.0265 12.0833 16.927 12.0833 16.8041C12.0833 16.7398 12.0662 16.6812 12.0208 16.6403L9.75482 14.2995L8.39751 12.9478L9.64125 12.9829L18.0747 12.9829C18.194 12.9829 18.2905 12.8892 18.2905 12.7605C18.2905 12.6318 18.194 12.5381 18.0747 12.5381L9.64125 12.5381L8.39751 12.5674L9.75482 11.2215L12.0208 8.88072C12.0606 8.8398 12.0833 8.77538 12.0833 8.71102C12.0833 8.59399 11.9867 8.49452 11.8618 8.49452C11.7993 8.49452 11.7482 8.51789 11.7027 8.56475L7.8126 12.5966C7.76718 12.6435 7.74444 12.6961 7.74444 12.7605Z" fill="white"/>
</g>
</svg>
