<svg width="14" height="12" viewBox="0 0 14 12" fill="none" xmlns="http://www.w3.org/2000/svg">
<path fill-rule="evenodd" clip-rule="evenodd" d="M0 11.0294C0 10.6233 0.329206 10.2941 0.735294 10.2941H12.5C12.9061 10.2941 13.2353 10.6233 13.2353 11.0294C13.2353 11.4355 12.9061 11.7647 12.5 11.7647H0.735294C0.329206 11.7647 0 11.4355 0 11.0294Z" fill="black"/>
<path fill-rule="evenodd" clip-rule="evenodd" d="M0 5.88227C0 5.47616 0.329206 5.14697 0.735294 5.14697H12.5C12.9061 5.14697 13.2353 5.47616 13.2353 5.88227C13.2353 6.28837 12.9061 6.61756 12.5 6.61756H0.735294C0.329206 6.61756 0 6.28837 0 5.88227Z" fill="black"/>
<path fill-rule="evenodd" clip-rule="evenodd" d="M0 0.735294C0 0.329206 0.329206 0 0.735294 0H12.5C12.9061 0 13.2353 0.329206 13.2353 0.735294C13.2353 1.14139 12.9061 1.47059 12.5 1.47059H0.735294C0.329206 1.47059 0 1.14138 0 0.735294Z" fill="black"/>
</svg>
