<svg width="36" height="36" viewBox="0 0 36 36" fill="none" xmlns="http://www.w3.org/2000/svg">
<circle cx="18" cy="18" r="17.5" stroke="black"/>
<path d="M12.8688 18.6183C12.8137 19.6653 12.877 20.7798 11.9416 21.4813C11.5062 21.8079 11.25 22.3203 11.25 22.8645C11.25 23.6131 11.8364 24.25 12.6 24.25H23.4C24.1637 24.25 24.75 23.6131 24.75 22.8645C24.75 22.3203 24.4938 21.8079 24.0584 21.4813C23.1229 20.7798 23.1863 19.6653 23.1312 18.6183C22.9876 15.8892 20.7329 13.75 18 13.75C15.2671 13.75 13.0124 15.8892 12.8688 18.6183Z" stroke="black" stroke-width="1.5" stroke-linecap="round" stroke-linejoin="round"/>
<path d="M16.875 12.3438C16.875 12.9651 17.3787 13.75 18 13.75C18.6213 13.75 19.125 12.9651 19.125 12.3438C19.125 11.7224 18.6213 11.5 18 11.5C17.3787 11.5 16.875 11.7224 16.875 12.3438Z" stroke="black" stroke-width="1.5"/>
<path d="M20.25 24.25C20.25 25.4927 19.2427 26.5 18 26.5C16.7573 26.5 15.75 25.4927 15.75 24.25" stroke="black" stroke-width="1.5" stroke-linecap="round" stroke-linejoin="round"/>
</svg>
