<svg width="20" height="20" viewBox="0 0 20 20" fill="none" xmlns="http://www.w3.org/2000/svg">
<path d="M5.35968 14.5713V10.9923" stroke="#2A353D" stroke-width="1.5" stroke-linecap="round"/>
<path d="M9.83337 14.5713V5.6239" stroke="#2A353D" stroke-width="1.5" stroke-linecap="round"/>
<path d="M14.3071 14.5712V9.20276" stroke="#2A353D" stroke-width="1.5" stroke-linecap="round"/>
<path d="M1.33337 10.0975C1.33337 6.0906 1.33337 4.08713 2.57817 2.84233C3.82297 1.59753 5.82644 1.59753 9.83337 1.59753C13.8403 1.59753 15.8438 1.59753 17.0886 2.84233C18.3334 4.08713 18.3334 6.0906 18.3334 10.0975C18.3334 14.1044 18.3334 16.1079 17.0886 17.3528C15.8438 18.5975 13.8403 18.5975 9.83337 18.5975C5.82644 18.5975 3.82297 18.5975 2.57817 17.3528C1.33337 16.1079 1.33337 14.1044 1.33337 10.0975Z" stroke="#2A353D" stroke-width="1.5" stroke-linejoin="round"/>
</svg>
