<svg width="36" height="36" viewBox="0 0 36 36" fill="none" xmlns="http://www.w3.org/2000/svg">
<circle cx="18" cy="18" r="17.5" stroke="black"/>
<path d="M27.4923 13.1336L26.986 12.277C26.6031 11.6292 26.4118 11.3052 26.086 11.1761C25.7603 11.0469 25.3919 11.1488 24.6551 11.3527L23.4037 11.6964C22.9333 11.8021 22.4398 11.7421 22.0103 11.527L21.6648 11.3326C21.2965 11.1026 21.0132 10.7635 20.8564 10.3649L20.5139 9.36755C20.2887 8.70753 20.1761 8.37752 19.908 8.18876C19.64 8 19.2839 8 18.5717 8H17.4283C16.7162 8 16.3601 8 16.092 8.18876C15.8239 8.37752 15.7113 8.70753 15.4861 9.36755L15.1436 10.3649C14.9868 10.7635 14.7035 11.1026 14.3352 11.3326L13.9897 11.527C13.5602 11.7421 13.0667 11.8021 12.5964 11.6964L11.3449 11.3527C10.6081 11.1488 10.2397 11.0469 9.91401 11.1761C9.58829 11.3052 9.39687 11.6292 9.014 12.277L8.50776 13.1336C8.14888 13.7408 7.96943 14.0445 8.00427 14.3677C8.03909 14.6909 8.27931 14.9514 8.75975 15.4723L9.81723 16.625C10.0757 16.944 10.2592 17.5 10.2592 17.9999C10.2592 18.5 10.0757 19.0558 9.81726 19.3749L8.75975 20.5276C8.27931 21.0486 8.0391 21.309 8.00427 21.6323C7.96943 21.9555 8.14888 22.2591 8.50776 22.8663L9.01399 23.7229C9.39685 24.3707 9.58829 24.6947 9.91401 24.8238C10.2397 24.953 10.6081 24.8511 11.3449 24.6472L12.5963 24.3035C13.0668 24.1977 13.5604 24.2578 13.9899 24.473L14.3354 24.6674C14.7036 24.8974 14.9868 25.2364 15.1436 25.635L15.4861 26.6325C15.7113 27.2925 15.8239 27.6225 16.092 27.8113C16.3601 28 16.7162 28 17.4283 28H18.5717C19.2839 28 19.64 28 19.908 27.8113C20.1761 27.6225 20.2887 27.2925 20.5139 26.6325L20.8565 25.635C21.0132 25.2364 21.2964 24.8974 21.6647 24.6674L22.0101 24.473C22.4397 24.2578 22.9332 24.1977 23.4037 24.3035L24.6551 24.6472C25.3919 24.8511 25.7603 24.953 26.086 24.8238C26.4118 24.6947 26.6031 24.3707 26.986 23.7229L27.4923 22.8663C27.8511 22.2591 28.0305 21.9555 27.9957 21.6323C27.9609 21.309 27.7207 21.0486 27.2403 20.5276L26.1827 19.3749C25.9243 19.0558 25.7408 18.5 25.7408 17.9999C25.7408 17.5 25.9244 16.944 26.1827 16.625L27.2403 15.4723C27.7207 14.9514 27.9609 14.6909 27.9957 14.3677C28.0305 14.0445 27.8511 13.7408 27.4923 13.1336Z" stroke="#2A353D" stroke-width="1.5" stroke-linecap="round"/>
<path d="M21.5457 17.9922C21.5457 19.9252 19.9385 21.4922 17.9559 21.4922C15.9734 21.4922 14.3662 19.9252 14.3662 17.9922C14.3662 16.0592 15.9734 14.4922 17.9559 14.4922C19.9385 14.4922 21.5457 16.0592 21.5457 17.9922Z" stroke="#2A353D" stroke-width="1.5"/>
</svg>
