<svg width="19" height="18" viewBox="0 0 19 18" fill="none" xmlns="http://www.w3.org/2000/svg">
<path d="M16.7144 5.02544L15.3168 3.81179C14.3099 2.93732 13.9152 2.46691 13.3699 2.63321C12.69 2.84057 12.9138 4.14897 12.9138 4.59069C11.8567 4.59069 10.7576 4.50939 9.71564 4.67879C6.27582 5.23803 5.2002 7.68538 5.2002 10.3221C6.17377 9.7253 7.14639 9.05978 8.31652 8.78322C9.77716 8.43794 11.4084 8.60266 12.9138 8.60266C12.9138 9.04442 12.69 10.3528 13.3699 10.5602C13.9877 10.7486 14.3099 10.256 15.3168 9.38162L16.7144 8.16794C17.5716 7.42354 18.0002 7.0513 18.0002 6.59669C18.0002 6.1421 17.5716 5.76988 16.7144 5.02544Z" stroke="#2A353D" stroke-width="1.5" stroke-linecap="round" stroke-linejoin="round"/>
<path d="M8.85408 1C5.76588 1.00555 4.14875 1.08122 3.11529 2.11258C2 3.22562 2 5.017 2 8.59976C2 12.1826 2 13.9739 3.11528 15.087C4.23057 16.2 6.02558 16.2 9.6156 16.2C13.2057 16.2 15.0007 16.2 16.116 15.087C16.8925 14.312 17.1283 13.2082 17.2 11.4" stroke="#2A353D" stroke-width="1.5" stroke-linecap="round" stroke-linejoin="round"/>
<path d="M16.2427 5.51629L14.8451 4.30263C13.8382 3.42817 13.4435 2.95776 12.8982 3.12406C12.2183 3.33142 12.4421 4.63982 12.4421 5.08154C11.385 5.08154 10.286 5.00023 9.24396 5.16963C5.80414 5.72888 4.72852 8.17622 4.72852 10.8129C5.70209 10.2161 6.67471 9.55062 7.84484 9.27406C9.30548 8.92878 10.9368 9.0935 12.4421 9.0935C12.4421 9.53526 12.2183 10.8437 12.8982 11.051C13.516 11.2394 13.8382 10.7469 14.8451 9.87246L16.2427 8.65878C17.0999 7.91438 17.5285 7.54214 17.5285 7.08754C17.5285 6.63294 17.0999 6.26073 16.2427 5.51629Z" stroke="#2A353D" stroke-width="1.5" stroke-linecap="round" stroke-linejoin="round"/>
<path d="M8.3824 1.49097C5.2942 1.49652 3.67707 1.57218 2.64361 2.60355C1.52832 3.71658 1.52832 5.50797 1.52832 9.09073C1.52832 12.6735 1.52832 14.4649 2.6436 15.5779C3.75889 16.691 5.5539 16.691 9.14392 16.691C12.734 16.691 14.529 16.691 15.6443 15.5779C16.4208 14.803 16.6566 13.6992 16.7283 11.891" stroke="#2A353D" stroke-width="1.5" stroke-linecap="round" stroke-linejoin="round"/>
</svg>
