<svg width="17" height="19" viewBox="0 0 17 19" fill="none" xmlns="http://www.w3.org/2000/svg">
<path d="M1 7.8C1 4.59445 1 2.99168 2.05808 1.99583C3.11615 1 4.8191 1 8.225 1H8.88179C11.6538 1 13.0398 1 14.0024 1.67816C14.2782 1.87247 14.523 2.10289 14.7295 2.36246C15.45 3.26837 15.45 4.57286 15.45 7.18182V9.34547C15.45 11.8642 15.45 13.1235 15.0514 14.1293C14.4106 15.7463 13.0555 17.0217 11.3374 17.6248C10.2687 18 8.93067 18 6.25455 18C4.72534 18 3.96074 18 3.35006 17.7856C2.36832 17.441 1.59394 16.7122 1.22777 15.7882C1 15.2134 1 14.4938 1 13.0545V7.8Z" stroke="#2A353D" stroke-width="1.5" stroke-linejoin="round"/>
<path d="M15.4502 9.5C15.4502 11.0648 14.1817 12.3333 12.6169 12.3333C12.051 12.3333 11.3838 12.2342 10.8335 12.3816C10.3447 12.5126 9.96276 12.8945 9.83178 13.3833C9.68439 13.9336 9.7835 14.6008 9.7835 15.1667C9.7835 16.7315 8.51496 18 6.9502 18" stroke="#2A353D" stroke-width="1.5" stroke-linecap="round" stroke-linejoin="round"/>
<path d="M4.8252 5.25H10.7752" stroke="#2A353D" stroke-width="1.5" stroke-linecap="round" stroke-linejoin="round"/>
<path d="M4.8252 8.65002H7.3752" stroke="#2A353D" stroke-width="1.5" stroke-linecap="round" stroke-linejoin="round"/>
</svg>
